<svg xmlns="http://www.w3.org/2000/svg" width="200" height="50" fill="none"><path fill="#2D329C" d="M27.263 45.942c-1.464.392-2.843.195-4.139-.59-1.294-.787-2.144-1.934-2.549-3.444-.404-1.51-.238-2.924.5-4.24.738-1.316 1.834-2.169 3.288-2.559a6.188 6.188 0 0 1 1.036-.18c.365-.034.677-.034.935 0l.86-2.236a7.165 7.165 0 0 1-1.886-2.08c-.511-.84-.822-1.695-.93-2.566l-2.274-.393a5.279 5.279 0 0 1-1.344 2c-.622.59-1.38 1.005-2.275 1.245-1.463.392-2.848.2-4.153-.574-1.306-.776-2.16-1.913-2.561-3.412-.405-1.51-.236-2.93.505-4.261.742-1.331 1.845-2.193 3.31-2.585 1.463-.393 2.843-.196 4.138.59 1.295.785 2.144 1.932 2.549 3.442l.048.18 2.214.448a7.422 7.422 0 0 1 1.295-2.565 6.43 6.43 0 0 1 2.164-1.833l-.637-2.375c-.984-.045-1.988-.419-3.011-1.122-1.024-.703-1.715-1.726-2.076-3.07-.404-1.508-.235-2.929.506-4.26.742-1.331 1.845-2.193 3.31-2.585 1.463-.392 2.849-.197 4.155.585 1.307.782 2.162 1.928 2.567 3.438.36 1.343.272 2.575-.263 3.695-.535 1.12-1.217 1.946-2.047 2.477l.636 2.376a6.87 6.87 0 0 1 2.8.541 7.422 7.422 0 0 1 2.404 1.574l1.684-1.531-.048-.18c-.405-1.51-.24-2.929.495-4.258.734-1.33 1.828-2.189 3.282-2.578 1.464-.392 2.85-.197 4.157.585 1.308.783 2.164 1.929 2.568 3.439.405 1.51.235 2.924-.51 4.242s-1.849 2.173-3.312 2.565a5.165 5.165 0 0 1-2.614.045c-.849-.21-1.578-.567-2.187-1.073l-1.763 1.514c.308.87.467 1.765.477 2.688a6.732 6.732 0 0 1-.558 2.733l1.907 1.534c.2-.183.461-.349.783-.5.32-.15.644-.268.97-.356 1.454-.39 2.83-.196 4.129.581 1.299.777 2.149 1.915 2.55 3.415.405 1.51.24 2.929-.494 4.258-.735 1.33-1.83 2.188-3.283 2.578-1.463.392-2.849.197-4.156-.585-1.308-.782-2.164-1.928-2.568-3.437a5.587 5.587 0 0 1-.188-1.747c.03-.584.122-1.102.275-1.555l-1.827-1.516c-.779.723-1.709 1.23-2.79 1.52-1.082.289-2.14.316-3.176.079l-.79 2.217a5.8 5.8 0 0 1 1.016 1.209 5.57 5.57 0 0 1 .71 1.607c.405 1.509.237 2.93-.505 4.26-.742 1.332-1.845 2.193-3.309 2.586zM17.425 26.94c.395-.106.69-.333.883-.68.194-.348.236-.726.127-1.134a1.466 1.466 0 0 0-.676-.918 1.376 1.376 0 0 0-1.106-.147c-.395.106-.69.332-.883.68a1.465 1.465 0 0 0-.127 1.133c.11.408.335.714.677.918.34.204.71.254 1.105.148zm8.77 15.006c.395-.106.69-.333.883-.68.194-.348.236-.726.127-1.134a1.466 1.466 0 0 0-.676-.918 1.376 1.376 0 0 0-1.105-.147c-.396.106-.69.333-.884.68a1.466 1.466 0 0 0-.126 1.133c.109.408.334.714.676.918.341.205.71.254 1.105.148zm1.73-28.156c.395-.106.69-.333.883-.68.194-.348.236-.726.127-1.134a1.466 1.466 0 0 0-.676-.918 1.376 1.376 0 0 0-1.106-.147c-.395.106-.69.332-.883.68a1.466 1.466 0 0 0-.127 1.133c.11.408.335.714.677.918.34.204.71.254 1.105.148zm4.188 15.655a2.487 2.487 0 0 0 1.585-1.228c.354-.63.435-1.308.24-2.032-.193-.724-.6-1.272-1.22-1.646a2.458 2.458 0 0 0-1.982-.28 2.487 2.487 0 0 0-1.584 1.229c-.355.63-.435 1.308-.24 2.031.193.724.6 1.273 1.22 1.647.619.374 1.28.467 1.981.279zm11.388 7.864c.395-.106.69-.333.883-.68.194-.348.236-.726.127-1.134a1.466 1.466 0 0 0-.676-.918 1.377 1.377 0 0 0-1.106-.147c-.395.106-.69.333-.883.68a1.466 1.466 0 0 0-.127 1.133c.11.408.335.714.676.918.342.205.71.254 1.106.148zm.092-17.381c.395-.106.69-.333.883-.68.194-.348.236-.726.127-1.133a1.466 1.466 0 0 0-.676-.919 1.376 1.376 0 0 0-1.105-.147c-.396.106-.69.333-.884.68a1.466 1.466 0 0 0-.126 1.133c.109.408.334.714.676.919.341.204.71.253 1.105.147zm113.948 8.319c0-5.334 4.829-8.983 11.959-8.983 2.19 0 4.324.393 6.289.898v-3.2c0-2.583-.112-6.963-4.323-6.963-2.19 0-3.987 1.516-5.84 3.762-.954 1.18-1.965 2.302-3.705 2.302-1.404 0-2.415-.898-2.415-2.19 0-2.975 7.355-6.962 13.419-6.962 5.727 0 9.04 3.088 9.04 8.815v10.556c0 3.2.168 5.278 3.537 6.008.337.056.45.224.45.561 0 1.291-1.629 3.032-4.548 3.032-2.527 0-4.548-1.347-5.447-4.66-2.077 3.369-5.446 5.11-9.32 5.11-5.446 0-9.096-3.37-9.096-8.086zm6.289-.842c0 2.863 1.965 4.997 5.165 4.997 3.65 0 6.906-3.088 6.906-7.243v-1.684c-1.291-.618-3.313-1.18-5.334-1.18-4.379 0-6.737 2.078-6.737 5.11zm-15.08 8.422c-5.054 0-7.524-.73-7.524-2.19 0-.955.954-1.292 2.863-1.46.394-.225-.28-1.628-1.796-3.65l-3.369-4.491a60.154 60.154 0 0 0-3.93 5.165c-1.292 1.797-1.741 2.807-1.292 3.088 2.134.169 3.088.562 3.088 1.404 0 1.46-2.47 2.134-6.681 2.134-4.155 0-6.064-.674-6.064-2.022 0-1.01 1.123-1.404 3.425-1.684.954-.337 1.965-1.685 4.099-4.043 1.909-2.133 3.705-4.38 5.446-6.513-1.741-2.19-3.425-4.38-5.053-6.345-2.078-2.638-3.088-3.761-3.987-3.986-1.796-.168-2.919-.561-2.919-1.572 0-1.46 2.582-2.246 7.411-2.246 5.109 0 7.468.73 7.468 2.19 0 .954-1.067 1.291-2.695 1.46-.45.168.112 1.291 1.403 3.088l3.032 4.042a71 71 0 0 0 3.201-4.099c1.291-1.74 1.74-2.863 1.291-3.144-1.46-.224-2.527-.561-2.527-1.403 0-1.404 2.302-2.134 6.008-2.134 3.93 0 5.896.674 5.896 2.021 0 1.067-1.18 1.404-3.032 1.629-1.123.449-2.246 1.684-4.268 4.042a133.5 133.5 0 0 0-4.716 5.559l5.278 6.737c2.302 2.864 3.593 4.38 4.548 4.604 1.853.169 2.919.562 2.919 1.573 0 1.46-2.582 2.245-7.523 2.245zm-54.078-7.58c0-5.334 4.829-8.983 11.959-8.983 2.19 0 4.324.393 6.289.898v-3.2c0-2.583-.113-6.963-4.324-6.963-2.189 0-3.986 1.516-5.839 3.762-.954 1.18-1.965 2.302-3.706 2.302-1.403 0-2.414-.898-2.414-2.19 0-2.975 7.355-6.962 13.419-6.962 5.727 0 9.04 3.088 9.04 8.815v10.556c0 3.2.168 5.278 3.537 6.008.337.056.449.224.449.561 0 1.291-1.628 3.032-4.548 3.032-2.526 0-4.547-1.347-5.446-4.66-2.077 3.369-5.446 5.11-9.32 5.11-5.447 0-9.096-3.37-9.096-8.086zm6.288-.842c0 2.863 1.966 4.997 5.166 4.997 3.649 0 6.906-3.088 6.906-7.243v-1.684c-1.291-.618-3.313-1.18-5.334-1.18-4.379 0-6.738 2.078-6.738 5.11zM66.416 46.27c-4.604 0-7.186-.561-7.186-2.021 0-1.123 1.179-1.46 3.368-1.628.618-.225.73-1.965.73-5.896V18.421c0-2.414-.112-5.67-.842-6.12-2.863-.168-3.593-.786-3.593-1.572 0-.561.28-1.01 1.123-1.46 1.965-1.01 6.063-1.909 7.58-1.909 1.572 0 1.965 1.011 1.965 3.088l-.057 3.313c1.741-4.042 5.896-6.85 10.556-6.85 6.457 0 11.454 5.559 11.454 14.205 0 8.703-5.502 15.216-13.42 15.216-3.593 0-6.624-1.403-8.59-3.256v3.65c0 3.537.169 5.558.899 5.895 3.256.224 4.38.505 4.38 1.628 0 1.572-2.864 2.021-8.367 2.021zm2.92-23.357c0 7.412 3.481 10.331 7.636 10.331 4.94 0 7.973-4.267 7.973-11.005 0-6.85-3.088-11.06-7.524-11.06-3.874 0-8.085 3.368-8.085 11.734z"/></svg>