<svg xmlns="http://www.w3.org/2000/svg" width="200" height="50" fill="none"><path fill="#fff" d="M30.533 45.942c-1.464.392-2.844.195-4.139-.59-1.295-.787-2.145-1.934-2.55-3.444-.404-1.51-.237-2.924.5-4.24.739-1.316 1.835-2.169 3.288-2.559a6.164 6.164 0 0 1 1.036-.18c.365-.034.677-.034.935 0l.86-2.236a7.165 7.165 0 0 1-1.885-2.08c-.512-.84-.822-1.695-.93-2.566l-2.275-.393a5.279 5.279 0 0 1-1.344 2c-.621.59-1.38 1.005-2.274 1.245-1.463.392-2.848.2-4.154-.574-1.305-.776-2.16-1.913-2.56-3.412-.405-1.51-.237-2.93.505-4.261s1.845-2.193 3.309-2.585c1.464-.393 2.843-.196 4.138.59 1.295.785 2.145 1.932 2.55 3.442l.047.18 2.215.448a7.424 7.424 0 0 1 1.294-2.565 6.43 6.43 0 0 1 2.164-1.833l-.636-2.375c-.984-.045-1.988-.419-3.012-1.122-1.023-.703-1.715-1.726-2.075-3.07-.404-1.508-.236-2.929.506-4.26s1.845-2.193 3.309-2.585c1.464-.392 2.849-.197 4.156.585 1.306.782 2.162 1.928 2.566 3.438.36 1.343.273 2.575-.262 3.695-.535 1.12-1.218 1.946-2.048 2.477l.636 2.376a6.87 6.87 0 0 1 2.8.541 7.423 7.423 0 0 1 2.404 1.574l1.684-1.531-.048-.18c-.404-1.51-.24-2.929.495-4.258.735-1.33 1.829-2.189 3.283-2.578 1.463-.392 2.849-.197 4.157.585 1.307.783 2.163 1.929 2.568 3.439.404 1.51.234 2.924-.51 4.242-.745 1.318-1.85 2.173-3.313 2.565a5.164 5.164 0 0 1-2.613.045c-.85-.21-1.578-.567-2.187-1.073l-1.764 1.514c.308.87.467 1.765.478 2.688a6.735 6.735 0 0 1-.558 2.733l1.906 1.534c.201-.183.462-.349.783-.5.321-.15.645-.268.97-.356 1.454-.39 2.83-.196 4.13.581 1.298.777 2.149 1.915 2.55 3.415.405 1.51.24 2.929-.495 4.258-.734 1.33-1.829 2.188-3.282 2.578-1.464.392-2.85.197-4.157-.585s-2.163-1.928-2.568-3.437a5.587 5.587 0 0 1-.188-1.747c.03-.584.123-1.102.276-1.555l-1.828-1.516c-.778.723-1.708 1.23-2.79 1.52-1.081.289-2.14.316-3.176.079l-.79 2.217c.36.315.698.718 1.016 1.209.319.49.556 1.026.711 1.607.405 1.509.236 2.93-.506 4.26-.741 1.332-1.844 2.193-3.308 2.586zM20.694 26.94c.396-.106.69-.333.884-.68.193-.348.236-.726.126-1.134a1.466 1.466 0 0 0-.676-.918 1.376 1.376 0 0 0-1.105-.147c-.395.106-.69.332-.884.68a1.466 1.466 0 0 0-.126 1.133c.11.408.335.714.676.918.341.204.71.254 1.105.148zm8.77 15.006c.396-.106.69-.333.884-.68.194-.348.236-.726.126-1.134a1.465 1.465 0 0 0-.676-.918 1.376 1.376 0 0 0-1.105-.147c-.395.106-.69.333-.883.68a1.465 1.465 0 0 0-.127 1.133c.11.408.335.714.676.918.342.205.71.254 1.105.148zm1.73-28.156c.396-.106.69-.333.884-.68.193-.348.235-.726.126-1.134a1.466 1.466 0 0 0-.676-.918 1.376 1.376 0 0 0-1.105-.147c-.395.106-.69.332-.884.68a1.466 1.466 0 0 0-.126 1.133c.11.408.335.714.676.918.341.204.71.254 1.105.148zm4.189 15.655a2.487 2.487 0 0 0 1.584-1.228c.355-.63.435-1.308.241-2.032s-.6-1.272-1.22-1.646a2.457 2.457 0 0 0-1.982-.28 2.487 2.487 0 0 0-1.584 1.229c-.355.63-.435 1.308-.241 2.031.194.724.6 1.273 1.22 1.647.62.374 1.28.467 1.982.279zM46.77 37.31c.396-.106.69-.333.884-.68.193-.348.236-.726.126-1.134a1.465 1.465 0 0 0-.676-.918A1.376 1.376 0 0 0 46 34.431c-.396.106-.69.333-.884.68a1.465 1.465 0 0 0-.126 1.133c.11.408.335.714.676.918.342.205.71.254 1.105.148zm.092-17.381c.396-.106.69-.333.884-.68.194-.348.236-.726.126-1.133a1.466 1.466 0 0 0-.676-.919 1.377 1.377 0 0 0-1.105-.147c-.395.106-.69.333-.883.68a1.466 1.466 0 0 0-.127 1.133c.11.408.335.714.676.919.342.204.71.253 1.105.147zm113.949 8.318c0-5.334 4.828-8.983 11.959-8.983 2.19 0 4.323.393 6.288.898v-3.2c0-2.583-.112-6.963-4.323-6.963-2.19 0-3.986 1.516-5.839 3.762-.955 1.18-1.965 2.302-3.706 2.302-1.404 0-2.414-.898-2.414-2.19 0-2.975 7.355-6.962 13.419-6.962 5.727 0 9.04 3.088 9.04 8.815v10.556c0 3.2.168 5.278 3.537 6.008.337.056.449.224.449.561 0 1.291-1.628 3.032-4.548 3.032-2.527 0-4.548-1.347-5.446-4.66-2.078 3.369-5.446 5.11-9.321 5.11-5.446 0-9.095-3.37-9.095-8.086zm6.288-.842c0 2.863 1.965 4.997 5.166 4.997 3.649 0 6.906-3.088 6.906-7.243v-1.684c-1.292-.618-3.313-1.18-5.334-1.18-4.38 0-6.738 2.078-6.738 5.11zm-15.08 8.422c-5.053 0-7.524-.73-7.524-2.19 0-.955.955-1.292 2.864-1.46.393-.225-.281-1.628-1.797-3.65l-3.369-4.491a60.36 60.36 0 0 0-3.93 5.165c-1.291 1.797-1.74 2.807-1.291 3.088 2.133.169 3.088.562 3.088 1.404 0 1.46-2.471 2.134-6.682 2.134-4.155 0-6.064-.674-6.064-2.022 0-1.01 1.123-1.404 3.425-1.684.955-.337 1.966-1.685 4.099-4.043 1.909-2.133 3.706-4.38 5.446-6.513-1.74-2.19-3.425-4.38-5.053-6.345-2.077-2.638-3.088-3.761-3.986-3.986-1.797-.168-2.92-.561-2.92-1.572 0-1.46 2.583-2.246 7.412-2.246 5.109 0 7.467.73 7.467 2.19 0 .954-1.067 1.291-2.695 1.46-.449.168.112 1.291 1.404 3.088l3.032 4.042a70.511 70.511 0 0 0 3.2-4.099c1.291-1.74 1.741-2.863 1.291-3.144-1.459-.224-2.526-.561-2.526-1.403 0-1.404 2.302-2.134 6.008-2.134 3.93 0 5.895.674 5.895 2.021 0 1.067-1.179 1.404-3.032 1.629-1.123.449-2.246 1.684-4.267 4.042a133.5 133.5 0 0 0-4.716 5.559l5.277 6.737c2.302 2.864 3.594 4.38 4.548 4.604 1.853.169 2.92.562 2.92 1.573 0 1.46-2.583 2.245-7.524 2.245zm-54.078-7.58c0-5.334 4.829-8.983 11.96-8.983 2.19 0 4.323.393 6.288.898v-3.2c0-2.583-.112-6.963-4.323-6.963-2.19 0-3.987 1.516-5.839 3.762-.955 1.18-1.966 2.302-3.706 2.302-1.404 0-2.414-.898-2.414-2.19 0-2.975 7.355-6.962 13.419-6.962 5.727 0 9.039 3.088 9.039 8.815v10.556c0 3.2.169 5.278 3.538 6.008.337.056.449.224.449.561 0 1.291-1.628 3.032-4.548 3.032-2.527 0-4.548-1.347-5.446-4.66-2.078 3.369-5.447 5.11-9.321 5.11-5.446 0-9.096-3.37-9.096-8.086zm6.289-.842c0 2.863 1.965 4.997 5.165 4.997 3.65 0 6.907-3.088 6.907-7.243v-1.684c-1.292-.618-3.313-1.18-5.334-1.18-4.38 0-6.738 2.078-6.738 5.11zM69.686 46.27c-4.604 0-7.187-.561-7.187-2.021 0-1.123 1.18-1.46 3.369-1.628.617-.225.73-1.965.73-5.896V18.421c0-2.414-.113-5.67-.843-6.12-2.863-.168-3.593-.786-3.593-1.572 0-.561.28-1.01 1.123-1.46 1.965-1.01 6.064-1.909 7.58-1.909 1.572 0 1.965 1.011 1.965 3.088l-.056 3.313c1.74-4.042 5.895-6.85 10.556-6.85 6.457 0 11.454 5.559 11.454 14.205 0 8.703-5.503 15.216-13.42 15.216-3.593 0-6.625-1.403-8.59-3.256v3.65c0 3.537.168 5.558.898 5.895 3.257.224 4.38.505 4.38 1.628 0 1.572-2.864 2.021-8.366 2.021zm2.92-23.357c0 7.412 3.48 10.331 7.636 10.331 4.94 0 7.972-4.267 7.972-11.005 0-6.85-3.088-11.06-7.523-11.06-3.874 0-8.085 3.368-8.085 11.734z"/></svg>